<svg x="0" y="0" width="249px" height="52px" overflow="inherit" viewBox="0, 0, 249, 52" preserveAspectRatio="xMidYMid" font-size="0" xml:space="default" xmlns="http://www.w3.org/2000/svg" xmlns:xlink="http://www.w3.org/1999/xlink" xmlns:xml="http://www.w3.org/XML/1998/namespace" version="1.1"><title xml:space="default">Альфа Страхование</title><desc xml:space="default">Created with Sketch.</desc><defs xml:space="default" /><g fill-rule="evenOdd" id="Page-1" xml:space="default" style="fill:none;"><g transform="translate(0, -24)" id="Artboard" xml:space="default" style="fill:#CF0A2C;"><g transform="translate(0, 24)" id="Альфа-Страхование" xml:space="default"><path d="M23.1383 14.24274 C20.9758 14.24274 19.37217 15.18703 18.09246 17.20966 C16.7314 19.36407 16.04022 22.38069 16.04022 26.1767 C16.04022 30.31684 16.69262 33.48783 17.97917 35.60384 C19.20717 37.62496 20.87315 38.60314 23.07747 38.60314 C24.96928 38.60314 26.64894 37.61893 27.93473 35.75369 C29.19847 33.92308 30.23942 30.74456 31.30318 25.48693 C30.45537 21.5983 29.27223 18.57264 27.87238 16.74128 C26.5653 15.03568 25.06204 14.24274 23.1383 14.24274" id="Fill-1" xml:space="default" /><path d="M45.80136 34.2627 C45.80136 36.94573 45.49417 38.57678 44.74141 39.89157 C43.89207 41.37352 42.23521 42.29598 40.41945 42.29598 C38.67439 42.29598 37.05175 41.45184 35.96822 39.98118 C35.29833 39.07077 34.7387 37.85312 34.18287 36.07146 C32.86058 37.87647 31.45997 39.2658 29.92554 40.26958 C27.55165 41.82383 24.9892 42.61376 22.30584 42.61376 C17.6995 42.61376 14.18354 41.14159 11.24242 37.97888 C8.422955 34.95247 6.993454 30.93583 6.993454 26.04567 C6.993454 21.65553 8.498231 17.70666 11.34887 14.62979 C14.21243 11.53335 17.83713 9.964044 22.12107 9.964044 C25.22415 9.964044 27.79497 10.95578 29.98029 12.99121 C31.23566 14.16066 32.36481 15.82409 33.0712 17.3196 C33.1077 17.39641 33.1442 17.47699 33.17994 17.55756 C33.88708 14.22918 34.67102 10.57023 34.67102 10.57023 L43.15527 10.57023 C43.15527 10.57023 38.68427 26.17369 37.235 31.04501 C37.74598 32.44037 38.25314 33.20996 38.8143 33.85079 C39.28269 34.3877 39.85601 34.64975 40.56924 34.64975 C41.50146 34.64975 42.06413 33.75064 42.13713 32.86282 L42.15538 32.63465 L45.80136 32.63465 L45.80136 34.2627 z M36.30735 0.7530262 L15.37809 0.7530262 C6.896126 0.7530262 0.0003041491 7.584481 0.0003041491 15.97997 L0.0003041491 36.70852 C0.0003041491 45.10176 6.896126 51.93547 15.37809 51.93547 L36.30735 51.93547 C44.78246 51.93547 51.68133 45.10176 51.68133 36.70852 L51.68133 15.97997 C51.68133 7.584481 44.78246 0.7530262 36.30735 0.7530262 z" id="Fill-3" xml:space="default" /><path d="M68.62996 16.268 L69.56446 12.07515 C69.71577 11.39668 70.24879 10.36127 71.64636 10.36127 C73.04469 10.36127 73.57695 11.39668 73.72978 12.07515 L74.66276 16.268 L68.62996 16.268 z M77.5537 11.31158 C76.96745 8.696324 75.30224 6.870235 71.64636 6.870235 C68.20947 6.870235 66.32451 8.696324 65.7375 11.31158 L63.08381 23.15142 L65.92075 23.15142 C66.56859 23.15142 67.21187 22.63936 67.35026 22.01435 L67.88708 19.60542 L75.4064 19.60542 L75.94323 22.01435 C76.08237 22.63936 76.72489 23.15142 77.37197 23.15142 L80.21044 23.15142 L77.5537 11.31158 z" id="Fill-6" xml:space="default" /><path d="M87.20306 10.82325 L93.5324 10.82325 L93.5324 23.15104 L97.45061 23.15104 L97.45061 7.253902 L85.63593 7.253902 C84.3433 7.253902 83.2841 8.300609 83.2841 9.582259 L83.2841 17.61554 C83.2841 18.69011 82.78453 19.37386 81.91543 19.5463 L81.11095 19.73606 L81.83939 23.15104 L82.58456 23.15104 C85.26563 23.15104 87.20306 21.17585 87.20306 17.8151 L87.20306 10.82325" id="Fill-8" xml:space="default" /><path d="M131.5025 19.64043 L130.0753 19.64043 L130.0753 10.76602 L131.5025 10.76602 C134.1859 10.76602 135.4519 12.44677 135.4519 15.20134 C135.4519 17.95968 134.1859 19.64043 131.5025 19.64043 z M124.7291 19.64043 C122.0473 19.64043 120.7782 17.95968 120.7782 15.20134 C120.7782 12.44677 122.0473 10.76602 124.7291 10.76602 L126.1563 10.76602 L126.1563 19.64043 L124.7291 19.64043 z M131.5025 7.253902 L130.0753 7.253902 L130.0753 5.406729 L127.3326 5.406729 C126.6848 5.406729 126.1563 5.92707 126.1563 6.568648 L126.1563 7.253902 L124.7291 7.253902 C119.8863 7.253902 116.8585 10.52354 116.8585 15.20134 C116.8585 19.8814 119.8863 23.15104 124.7291 23.15104 L126.1563 23.15104 L126.1563 25.07803 L128.899 25.07803 C129.5469 25.07803 130.0753 24.55393 130.0753 23.91611 L130.0753 23.15104 L131.5025 23.15104 C136.3454 23.15104 139.3732 19.8814 139.3732 15.20134 C139.3732 10.52354 136.3454 7.253902 131.5025 7.253902 z" id="Fill-10" xml:space="default" /><path d="M109.6099 19.58305 L103.9869 19.58305 L103.9869 14.8548 L109.6099 14.8548 C110.5649 14.8548 111.6811 15.70195 111.6811 17.21779 C111.6811 18.73288 110.5649 19.58305 109.6099 19.58305 M109.6099 11.2847 L103.9869 11.2847 L103.9869 7.255258 L100.0672 7.255258 L100.0672 21.98746 C100.0672 22.62754 100.5972 23.15089 101.2443 23.15089 L109.6099 23.15089 C113.0262 23.15089 115.5978 20.60265 115.5978 17.21779 C115.5978 13.8352 113.4399 11.2847 109.6099 11.2847" id="Fill-12" xml:space="default" /><path d="M145.063 16.268 L145.9945 12.07515 C146.1488 11.39668 146.6811 10.36127 148.0779 10.36127 C149.477 10.36127 150.0077 11.39668 150.1613 12.07515 L151.0943 16.268 L145.063 16.268 z M153.9868 11.31158 C153.399 8.696324 151.7345 6.870235 148.0779 6.870235 C144.6425 6.870235 142.7568 8.696324 142.1691 11.31158 L139.5146 23.15142 L142.3538 23.15142 C143.0001 23.15142 143.6449 22.63936 143.7818 22.01435 L144.3186 19.60542 L151.838 19.60542 L152.374 22.01435 C152.5132 22.63936 153.158 23.15142 153.8035 23.15142 L156.6397 23.15142 L153.9868 11.31158 z" id="Fill-14" xml:space="default" /><path d="M173.0974 42.15916 L165.8715 42.15916 L165.8715 39.02355 L173.0974 39.02355 C173.619 39.08681 174.3299 39.59435 174.3299 40.59135 C174.3299 41.57857 173.619 42.15916 173.0974 42.15916 z M172.7833 32.85777 C173.3034 32.85777 174.0166 33.4376 174.0166 34.42558 C174.0166 35.42183 173.3034 35.92937 172.7833 35.99262 L165.8715 35.99262 L165.8715 32.85777 L172.7833 32.85777 z M176.7015 37.21027 C177.3935 36.53631 177.8375 35.61837 177.8375 34.34651 C177.8375 31.52868 175.634 29.55952 172.7871 29.55952 L163.2072 29.55952 C162.5616 29.55952 162.0317 30.08137 162.0317 30.72219 L162.0317 44.29323 C162.0317 44.9333 162.5616 45.45666 163.2072 45.45666 L173.3924 45.45816 C176.3928 45.45816 178.3865 43.33162 178.3865 40.51455 C178.3865 39.09584 177.706 37.98513 176.7015 37.21027 z" id="Fill-16" xml:space="default" /><path d="M146.8199 37.50718 C146.8199 34.65698 148.3536 32.47697 151.0537 32.47697 L151.9243 32.47697 C154.6229 32.47697 156.1558 34.65698 156.1558 37.50718 C156.1558 40.35889 154.6229 42.54041 151.9243 42.54041 L151.0537 42.54041 C148.3536 42.54041 146.8199 40.35889 146.8199 37.50718 M150.818 29.19302 C145.9736 29.19302 142.5877 32.6095 142.5877 37.50718 C142.5877 42.40336 145.9736 45.82285 150.818 45.82285 L152.1585 45.82285 C157.0051 45.82285 160.3896 42.40336 160.3896 37.50718 C160.3896 32.6095 157.0051 29.19302 152.1585 29.19302 L150.818 29.19302" id="Fill-18" xml:space="default" /><path d="M77.68874 29.55922 L78.20503 31.96363 C78.34266 32.60521 78.98441 33.12706 79.63149 33.12706 L83.28432 33.12706 L83.28432 45.45636 L87.20405 45.45636 L87.20405 33.12706 L90.74207 33.12706 C91.38762 33.12706 92.02785 32.60521 92.16548 31.96363 L92.68253 29.55922 L77.68874 29.55922" id="Fill-20" xml:space="default" /><polygon points="209.6873,29.55922 209.6873,35.87184 202.063,35.87184 202.063,29.55922 198.1433,29.55922 198.1433,45.45636 202.063,45.45636 202.063,39.28079 209.6873,39.28079 209.6873,45.45636 213.6062,45.45636 213.6062,29.55922" id="Fill-22" xml:space="default" /><path d="M114.373 38.57347 L115.3067 34.38062 C115.4581 33.70365 115.9888 32.66673 117.3879 32.66673 C118.7862 32.66673 119.3185 33.70365 119.4721 34.38363 L120.4043 38.57347 L114.373 38.57347 z M123.296 33.61856 C122.7075 31.00179 121.046 29.17645 117.3879 29.17645 C113.954 29.17645 112.0683 31.00179 111.4836 33.61856 L108.8284 45.45688 L111.6661 45.45688 C112.3139 45.45688 112.9557 44.94633 113.0956 44.32132 L113.6316 41.91088 L121.1479 41.91088 L121.6848 44.32132 C121.8216 44.94633 122.4672 45.45688 123.115 45.45688 L125.9512 45.45688 L123.296 33.61856 z" id="Fill-24" xml:space="default" /><path d="M184.8326 38.57347 L185.7671 34.38062 C185.9214 33.70365 186.4514 32.66673 187.849 32.66673 C189.2465 32.66673 189.7796 33.70365 189.9324 34.38363 L190.8654 38.57347 L184.8326 38.57347 z M193.7578 33.61856 C193.1701 31.00179 191.5064 29.17645 187.849 29.17645 C184.4121 29.17645 182.5294 31.00179 181.9409 33.61856 L179.2872 45.45688 L182.1264 45.45688 C182.7727 45.45688 183.4168 44.94633 183.5536 44.32132 L184.0912 41.91088 L191.609 41.91088 L192.1466 44.32132 C192.2865 44.94633 192.929 45.45688 193.5738 45.45688 L196.4146 45.45688 L193.7578 33.61856 z" id="Fill-26" xml:space="default" /><path d="M78.90762 45.41245 L78.90762 45.45839 L71.25143 45.45839 C66.61695 45.45839 63.38004 42.19025 63.38004 37.50718 C63.38004 32.82713 66.61695 29.55899 71.25143 29.55899 L77.05915 29.55899 L76.49116 31.99503 C76.34668 32.62004 75.69884 33.12758 75.05177 33.12758 L71.25143 33.12758 C68.77489 33.12758 67.29825 34.95819 67.29825 37.50718 C67.29825 40.05618 68.77489 41.88829 71.25143 41.88829 L76.91088 41.88829 C77.55568 41.88829 78.20503 42.39734 78.35027 43.02235 L78.90762 45.41245" id="Fill-28" xml:space="default" /><path d="M103.1846 37.85569 L97.56314 37.85569 L97.56314 33.13195 L103.1846 33.13195 C104.1411 33.13195 105.2581 33.9776 105.2581 35.49344 C105.2581 37.00853 104.1411 37.85569 103.1846 37.85569 M103.1846 29.55884 L94.81972 29.56035 C94.17188 29.56035 93.64342 30.08445 93.64342 30.72377 L93.64342 45.45824 L97.56314 45.45824 L97.56314 41.42503 L103.1846 41.42503 C107.0184 41.42503 109.1756 38.87528 109.1756 35.49344 C109.1756 32.11085 106.6009 29.55884 103.1846 29.55884" id="Fill-30" xml:space="default" /><path d="M246.8275 42.10034 L238.3859 42.10034 L238.3859 39.04833 L247.5628 39.04833 L247.5628 35.98201 L238.3859 35.98201 L238.3859 32.91418 L246.8275 32.91418 C247.5225 32.91418 248.0723 32.61221 248.2639 31.78012 L248.7863 29.55944 L235.6432 29.55944 C234.9969 29.55944 234.4669 30.08129 234.4669 30.72287 L234.4669 44.29316 C234.4669 44.93323 234.9969 45.45809 235.6432 45.45809 L248.7863 45.45809 L248.2639 43.23741 C248.0723 42.40457 247.5225 42.10034 246.8275 42.10034" id="Fill-32" xml:space="default" /><path d="M216.2938 45.45658 L216.2938 29.55944 L220.2127 29.55944 L220.2127 40.04684 L227.0029 30.49621 C227.3861 29.98114 228.2248 29.55944 228.8757 29.55944 L231.7803 29.55944 L231.7803 45.45658 L227.8613 45.45658 L227.8613 34.96843 L221.0689 44.51831 C220.6887 45.03413 219.847 45.45658 219.1999 45.45658 L216.2938 45.45658" id="Fill-34" xml:space="default" /><path d="M137.7712 37.4233 L143.2406 29.55944 L139.6417 29.55944 C138.8631 29.55944 138.3164 29.79288 137.8358 30.53988 L134.9213 35.0716 L134.3997 35.0716 L131.4837 30.53988 C131.0054 29.79288 130.4595 29.55944 129.677 29.55944 L125.9626 29.55944 L131.5483 37.59122 L126.0789 45.45658 L129.677 45.45658 C130.4595 45.45658 131.0054 45.2239 131.4837 44.47539 L134.3997 39.94292 L134.9213 39.94292 L137.8358 44.47539 C138.3164 45.2239 138.8631 45.45658 139.6417 45.45658 L143.3569 45.45658 L137.7712 37.4233" id="Fill-36" xml:space="default" /></g></g></g></svg>